<?xml version="1.0" ?><!DOCTYPE svg  PUBLIC '-//W3C//DTD SVG 1.1//EN'  'http://www.w3.org/Graphics/SVG/1.1/DTD/svg11.dtd'><svg enable-background="new 0 0 128 128" height="128px" version="1.1" viewBox="0 0 128 128" width="128px" xml:space="preserve" xmlns="http://www.w3.org/2000/svg" xmlns:xlink="http://www.w3.org/1999/xlink"><g id="Layer_2"/><g id="Layer_1"><g><path clip-rule="evenodd" d="M128,103.998c0,13.254-10.745,24-24,24H24    c-13.255,0-24-10.746-24-24v-80c0-13.254,10.745-24,24-24h80c13.255,0,24,10.746,24,24V103.998z" fill="#369DD2" fill-rule="evenodd"/><path d="M93.595,96.006H32.403c-10.548,0-19.129-8.583-19.129-19.133c0-9.512,7.112-17.6,16.406-18.931    c1.436-9.025,9.155-15.687,18.434-15.687c1.106,0,2.21,0.099,3.293,0.294c5.029-7.774,13.76-12.56,23.041-12.56    c15.119,0,27.42,12.302,27.42,27.422c0,0.71-0.03,1.436-0.09,2.169c6.688,3.154,10.947,9.822,10.947,17.292    C112.726,87.423,104.144,96.006,93.595,96.006z" fill="#FFFFFF"/></g></g></svg>