<?xml version="1.0" encoding="utf-8"?>
<!-- Generator: Adobe Illustrator 16.0.4, SVG Export Plug-In . SVG Version: 6.00 Build 0)  -->
<!DOCTYPE svg PUBLIC "-//W3C//DTD SVG 1.1//EN" "http://www.w3.org/Graphics/SVG/1.1/DTD/svg11.dtd">
<svg version="1.1" id="svg2" xmlns:svg="http://www.w3.org/2000/svg"
	 xmlns="http://www.w3.org/2000/svg" xmlns:xlink="http://www.w3.org/1999/xlink" x="0px" y="0px" width="945px" height="190px"
	 viewBox="0 0 945 190" enable-background="new 0 0 945 190" xml:space="preserve">
<path id="path2883" fill="#494949" d="M149.551,109.738L149.546,3.655C64.324-4.562,0,3.655,0,3.655s-0.001,106.077,0,106.101
	c6.792,71.912,74.144,80.359,74.783,80.243C86.812,187.83,143.28,176.475,149.551,109.738z"/>
<path id="path2881" fill="#494949" d="M189.156,135.438c0,19.644,9.443,33.502,21.626,41.883
	c11.118,7.46,24.215,10.202,37.921,10.202c9.749,0,20.712-2.285,24.063-3.505c1.675-0.606,3.504-1.217,5.33-1.522
	c2.285-2.893,6.245-12.944,7.31-20.865c-0.61-1.065-2.894-1.368-3.958-0.61c-3.504,8.988-12.185,21.781-31.83,21.781
	c-24.978,0-45.234-17.668-45.234-49.649c0-31.524,19.8-46.299,43.1-46.299c22.083,0,28.938,11.878,31.223,22.237
	c1.065,0.91,3.351,0.759,4.11-0.307c-1.218-9.288-1.979-18.883-2.131-22.387c-1.37,0.151-2.435-0.154-4.263-0.609
	c-7.16-1.98-18.733-3.655-26.958-3.655c-15.837,0-30.001,4.264-41.12,12.943C196.77,104.062,189.156,118.531,189.156,135.438
	L189.156,135.438z"/>
<path id="path2879" fill="#494949" d="M232.381,3.531l0.049-0.18l-0.085-0.167c-0.244-0.48-0.951-0.519-1.163-0.519
	c-0.159,0-0.391,0.019-0.596,0.1l-0.157,0.063l-0.085,0.145c-0.816,1.415-1.155,1.53-4.526,1.53h-26.234
	c-2.841,0-4.115-0.149-4.382-1.569l-0.028-0.149l-0.107-0.106c-0.176-0.176-0.462-0.261-0.875-0.261
	c-0.152,0-0.667,0.014-0.946,0.201l-0.172,0.116l-0.035,0.205c-0.445,2.526-1.383,6.537-2.391,9.377l-0.07,0.196l0.092,0.185
	c0.381,0.765,1.684,1.135,2.379,0.613l0.103-0.076l0.051-0.117c0.644-1.465,1.252-2.849,2.737-4.216
	c1.397-1.284,4.565-1.458,7.479-1.458h3.487c1.419,0,1.419,0,1.419,1.541v28.372c0,6.875-0.396,7.175-3.489,7.446l-2.284,0.19
	l-0.215,0.07c-0.378,0.232-0.588,0.705-0.565,1.266c0.019,0.428,0.187,0.96,0.602,1.167l0.11,0.057l0.124-0.005
	c3.886-0.117,6.232-0.188,8.804-0.188c2.479,0,4.528,0.06,8.3,0.188l0.124,0.005l0.111-0.057c0.415-0.208,0.593-0.773,0.62-1.232
	c0.034-0.549-0.129-0.984-0.445-1.192l-2.256-0.269c-3.175-0.274-3.363-0.691-3.363-7.446V8.92
	c-0.001-0.649-0.001-1.261,0.103-1.366c0.107-0.107,0.796-0.107,1.251-0.107h4.503c3.4,0,5.713,0.487,7.073,1.492
	c0.603,0.44,1.123,2.048,1.393,4.298l0.016,0.143l0.093,0.11c0.232,0.282,0.662,0.451,1.15,0.451c0.603,0,1.105-0.259,1.31-0.675
	l0.062-0.124l-0.015-0.14C231.26,11.174,231.7,6.062,232.381,3.531L232.381,3.531z"/>
<path id="path2877" fill="#494949" d="M284.559,37.359V14.514c0-6.76,0.189-7.181,3.365-7.513l1.329-0.126l0.224-0.079
	c0.316-0.21,0.48-0.648,0.446-1.2c-0.015-0.224-0.101-0.971-0.623-1.23l-0.112-0.056l-0.125,0.006
	c-3.069,0.135-5.163,0.188-7.471,0.188c-2.749,0-4.966-0.073-7.654-0.188l-0.124-0.006l-0.112,0.055
	c-0.521,0.258-0.61,1.001-0.625,1.224c-0.036,0.555,0.124,0.994,0.441,1.206L274.945,7c3.24,0.333,3.433,0.755,3.433,7.514v7.295
	c0,1.544,0,1.544-2.684,1.544h-18.15c-2.685,0-2.685,0-2.685-1.544v-7.295c0-6.76,0.189-7.18,3.372-7.514l1.204-0.125l0.22-0.08
	c0.317-0.211,0.479-0.65,0.443-1.205c-0.015-0.223-0.104-0.967-0.626-1.225l-0.113-0.055l-0.125,0.006
	c-2.889,0.134-5.015,0.188-7.338,0.188c-1.658,0-3.103-0.048-4.68-0.098c-1.016-0.031-2.087-0.066-3.304-0.091l-0.119-0.002
	l-0.105,0.053c-0.522,0.256-0.613,0.997-0.626,1.219c-0.039,0.556,0.121,0.997,0.439,1.211l0.107,0.071l1.777,0.136
	c2.796,0.214,3.294,0.79,3.294,7.511v22.845c0,6.606-0.122,6.885-3.276,7.453l-1.229,0.215l-0.108,0.108
	c-0.364,0.361-0.419,0.953-0.349,1.388c0.076,0.469,0.293,0.825,0.6,0.977l0.107,0.054l0.122-0.003
	c0.873-0.02,1.706-0.05,2.539-0.08c1.5-0.054,3.051-0.109,4.812-0.109c2.384,0,4.409,0.059,8.045,0.188l0.124,0.005l0.113-0.056
	c0.415-0.208,0.592-0.774,0.62-1.234c0.033-0.549-0.131-0.984-0.447-1.191l-2.056-0.268c-3.045-0.329-3.434-0.634-3.434-7.447
	v-8.952c0-1.54,0-1.54,2.685-1.54h18.15c2.684,0,2.684,0,2.684,1.54v8.952c0,6.751-0.065,6.89-3.459,7.45l-1.362,0.214l-0.112,0.112
	c-0.363,0.364-0.417,0.958-0.345,1.392c0.078,0.467,0.296,0.822,0.601,0.974l0.113,0.056l0.126-0.006
	c3.038-0.134,5.255-0.188,7.653-0.188c2.501,0,4.704,0.068,7.66,0.188l0.124,0.005l0.111-0.055c0.525-0.258,0.613-1.002,0.626-1.224
	c0.036-0.553-0.125-0.991-0.442-1.201l-1.732-0.268C284.717,44.417,284.559,44.069,284.559,37.359L284.559,37.359z"/>
<path id="path2875" fill="#494949" d="M337.597,38.34l0.031-0.152l-0.065-0.143c-0.273-0.611-0.947-0.884-1.493-0.884
	c-0.314,0-0.597,0.084-0.819,0.243l-0.153,0.18c-1.82,3.633-3.458,5.474-4.288,5.935c-1.366,0.682-3.286,0.901-7.906,0.901
	c-5.286,0-6.648-0.632-7.32-1.305c-0.899-0.958-1.075-3.023-1.075-6.267v-8.946c0-1.229,0-1.229,1.607-1.229h3.683
	c2.215,0,3.871,0.051,4.765,0.304c0.884,0.22,1.335,0.794,1.612,2.05l0.57,2.47l0.099,0.201c0.237,0.288,0.682,0.46,1.188,0.46
	c0.58,0,1.052-0.22,1.262-0.586l0.064-0.111V31.33c0-0.62-0.049-1.439-0.104-2.357c-0.07-1.156-0.149-2.468-0.149-3.738
	c0-1.328,0.079-2.686,0.148-3.884c0.056-0.97,0.105-1.841,0.105-2.523v-0.129l-0.063-0.113c-0.21-0.37-0.683-0.59-1.265-0.59
	c-0.505,0-0.949,0.171-1.187,0.459l-0.611,2.817c-0.287,1.45-0.644,1.666-1.198,1.85c-0.677,0.228-2.585,0.357-5.236,0.357h-3.683
	c-1.607,0-1.607,0-1.607-1.292V9.498c0-2.051,0-2.051,1.416-2.051h4.571c2.693,0,4.752,0.062,6.037,0.369
	c2.895,0.724,3.476,2.554,4.355,5.324l0.122,0.38l0.088,0.161c0.216,0.263,0.582,0.408,1.031,0.408c0.438,0,1.05-0.15,1.332-0.57
	l0.097-0.144l-0.084-0.938c-0.33-3.695-0.631-6.833-0.973-7.796l-0.146-0.417l-0.431,0.105c-0.703,0.175-4.641,0.175-8.45,0.175
	h-11.93c-2.443,0-4.536-0.053-7.462-0.188l-0.125-0.006l-0.112,0.055c-0.521,0.256-0.611,1-0.625,1.221
	c-0.038,0.557,0.122,0.997,0.438,1.209L304.889,7c3.249,0.384,3.441,0.806,3.441,7.514v22.845c0,6.875-0.395,7.175-3.492,7.446
	l-2.268,0.205l-0.124,0.125c-0.363,0.361-0.417,0.953-0.349,1.386c0.076,0.47,0.295,0.827,0.6,0.978l0.11,0.056l0.123-0.005
	c3.667-0.12,5.876-0.188,8.614-0.188h5.714c5.534,0,11.094,0.061,16.996,0.188l0.313,0.008l0.136-0.284
	C335.556,45.501,337.15,40.576,337.597,38.34L337.597,38.34z"/>
<path id="path2873" fill="#494949" d="M343.739,87.92c0.912-0.612,0.607-3.353-0.305-3.808c-6.551,0.304-11.728,0.455-17.667,0.455
	c-6.549,0-11.728-0.302-19.191-0.455c-0.913,0.455-1.217,3.195-0.304,3.808l3.959,0.304c7.922,0.609,8.987,3.2,8.987,19.19v54.826
	c0,15.99-0.306,17.515-8.835,19.037l-2.587,0.457c-0.914,0.912-0.609,3.351,0.302,3.809c5.941-0.151,11.12-0.458,17.669-0.458
	c5.939,0,11.116,0.152,19.342,0.458c0.913-0.458,1.217-3.201,0.305-3.809l-4.416-0.457c-8.529-0.914-9.291-3.047-9.291-19.037
	v-21.477c0-4.566,0.305-4.871,7.616-4.871h43.556c7.311,0,7.616,0.305,7.616,4.871v21.477c0,15.99,0,17.515-9.292,19.037
	l-2.893,0.457c-0.914,0.912-0.609,3.351,0.304,3.809c6.701-0.306,12.187-0.458,18.428-0.458c5.94,0,11.118,0.152,18.429,0.458
	c0.913-0.458,1.217-3.201,0.306-3.809l-3.657-0.457c-8.834-1.067-9.137-3.047-9.137-19.037v-54.826
	c0-15.99,0.303-18.278,9.137-19.19l3.2-0.304c0.914-0.612,0.607-3.353-0.305-3.808c-6.854,0.304-12.031,0.455-17.973,0.455
	c-6.241,0-11.423-0.151-18.428-0.455c-0.913,0.455-1.218,3.195-0.304,3.808l2.893,0.304c8.986,0.913,9.292,3.2,9.292,19.19v17.514
	c0,4.723-0.306,4.873-7.616,4.873h-43.556c-7.312,0-7.616-0.15-7.616-4.873v-17.514c0-15.99,0.305-18.278,9.139-19.19L343.739,87.92
	L343.739,87.92z"/>
<path id="path2871" fill="#494949" d="M416.689,6.639c0.281-0.34,0.413-0.864,0.337-1.335c-0.064-0.396-0.271-0.72-0.582-0.915
	l-0.132-0.081l-0.153,0.009c-2.205,0.121-3.916,0.188-6.637,0.188c-2.434,0-4.791-0.062-7.207-0.188l-0.161-0.009l-0.135,0.091
	c-0.294,0.195-0.497,0.557-0.557,0.989c-0.066,0.475,0.053,0.932,0.327,1.256l0.132,0.155l1.789,0.136
	c1.456,0.12,2.445,0.509,2.786,1.091c0.738,1.302,1.146,5.882,1.146,12.893v7.301c0,7.478-2.117,16.39-12.205,16.39
	c-8.458,0-12.397-5.229-12.397-16.456V14.449c0-6.749,0.221-7.24,3.359-7.514l1.649-0.131l0.105-0.071
	c0.316-0.211,0.479-0.639,0.442-1.174c-0.028-0.442-0.209-0.989-0.624-1.194l-0.111-0.054l-0.123,0.005
	c-3.009,0.121-5.142,0.188-7.785,0.188c-2.606,0-4.852-0.069-7.848-0.188l-0.124-0.005l-0.109,0.054
	c-0.417,0.204-0.597,0.747-0.627,1.188c-0.037,0.537,0.123,0.966,0.439,1.179l0.107,0.072l1.711,0.131
	c3.142,0.273,3.361,0.765,3.361,7.514v14.974c0,7.674,1.579,12.41,5.117,15.35c2.797,2.391,6.896,3.604,12.187,3.604
	c4.999,0,9.781-1.836,12.477-4.79c3.076-3.295,4.572-8.364,4.572-15.495v-7.172c0-3.216,0-10.751,0.845-12.743
	c0.295-0.64,1.382-1.127,2.768-1.241l1.729-0.138L416.689,6.639L416.689,6.639z"/>
<path id="path2869" fill="#494949" d="M473.578,6.732c0.305-0.306,0.459-0.804,0.403-1.297c-0.051-0.453-0.276-0.833-0.616-1.045
	l-0.131-0.083l-0.156,0.009c-2.083,0.121-3.735,0.188-6.509,0.188c-2.239,0-4.331-0.053-7.467-0.188l-0.097-0.005l-0.093,0.035
	c-0.369,0.136-0.628,0.482-0.713,0.951c-0.103,0.567,0.067,1.141,0.437,1.461l0.112,0.097l1.226,0.143
	c2.179,0.272,3.283,0.598,3.582,1.047c0.756,1.199,1.193,5.89,1.193,12.873V34.5c0,0.614,0,1.325-0.041,1.812
	c-2.2-2.274-4.502-4.852-7.363-8.054l-8.826-9.905c-6.279-7.042-9.873-11.66-10.686-13.729l-0.143-0.363l-0.385,0.059
	c-0.761,0.115-1.799,0.183-2.848,0.183c-1.109,0-4.486,0-7.132-0.188l-0.136-0.009l-0.12,0.06c-0.335,0.17-0.569,0.519-0.641,0.958
	c-0.088,0.528,0.064,1.081,0.386,1.406l0.12,0.122l1.245,0.145c1.692,0.211,2.954,0.689,3.634,1.37
	c1.185,1.296,1.271,2.466,1.271,4.238l0.001,18.916c0.002,3.067,0.011,10.252-0.784,12.297c-0.147,0.325-0.687,0.759-2.401,0.986
	l-1.883,0.208l-0.121,0.121c-0.282,0.281-0.426,0.733-0.388,1.21c0.04,0.478,0.249,0.884,0.575,1.115l0.139,0.099l0.17-0.009
	c2.208-0.122,3.909-0.188,6.574-0.188c2.148,0,4.295,0.055,7.403,0.188l0.169,0.008l0.136-0.098c0.297-0.212,0.497-0.55,0.561-0.951
	c0.072-0.465-0.046-0.946-0.325-1.32l-0.128-0.174l-2.193-0.21c-1.522-0.124-2.586-0.481-2.851-0.964
	c-0.684-1.207-1.075-5.905-1.075-12.895V17.112c0-1.136,0.019-2.345,0.133-3.207c1.009,1.127,2.688,3.112,4.198,4.9
	c1.036,1.226,1.998,2.361,2.617,3.074l14.725,16.75c4.89,5.567,7.233,8.33,8.089,9.541l0.146,0.207h0.254
	c0.833,0,1.455-0.386,1.668-1.034l0.033-0.102l-0.011-0.106c-0.087-0.738-0.188-3.255-0.188-11.046l-0.003-16.027
	c-0.01-3.251-0.03-10.017,0.901-11.995c0.08-0.16,0.843-0.701,3.189-1.069l1.05-0.147L473.578,6.732L473.578,6.732z"/>
<path id="path2867" fill="#494949" d="M465.727,161.937v-54.219c0-16.143,0.303-18.733,9.29-19.494l3.807-0.304
	c0.912-0.612,0.607-3.353-0.307-3.808c-7.613,0.304-12.79,0.455-18.884,0.455c-6.396,0-11.575-0.151-19.188-0.455
	c-0.913,0.455-1.219,3.195-0.304,3.808l3.806,0.304c8.985,0.761,9.29,3.352,9.29,19.494v54.219c0,16.144-0.305,18.273-9.29,19.341
	l-3.806,0.457c-0.915,0.912-0.609,3.351,0.304,3.809c7.613-0.306,12.792-0.458,19.188-0.458c6.094,0,11.271,0.152,18.884,0.458
	c0.914-0.458,1.219-3.201,0.307-3.809l-3.807-0.457C466.029,180.21,465.727,178.08,465.727,161.937z"/>
<path id="path2865" fill="#494949" d="M497.578,37.23V14.639c0-6.866,0.224-7.366,3.425-7.636l1.711-0.136l0.105-0.071
	c0.317-0.211,0.479-0.651,0.441-1.208c-0.012-0.221-0.103-0.966-0.625-1.223l-0.109-0.054l-0.125,0.005
	c-2.998,0.119-5.241,0.188-7.849,0.188c-2.728,0-4.904-0.066-7.974-0.188l-0.125-0.005l-0.11,0.054
	c-0.524,0.258-0.612,1.004-0.627,1.227c-0.034,0.554,0.127,0.994,0.445,1.205l0.104,0.07l1.709,0.135
	c3.202,0.271,3.428,0.771,3.428,7.638V37.23c0,6.831-0.164,7.186-3.442,7.576l-1.753,0.21l-0.12,0.119
	c-0.363,0.361-0.417,0.954-0.346,1.389c0.074,0.469,0.295,0.825,0.6,0.976l0.112,0.055l0.125-0.005
	c3.223-0.125,5.342-0.188,7.974-0.188c2.512,0,4.694,0.066,7.849,0.188l0.125,0.005l0.109-0.055
	c0.524-0.259,0.613-1.005,0.627-1.228c0.035-0.551-0.126-0.989-0.443-1.199l-1.798-0.268
	C497.738,44.416,497.578,44.061,497.578,37.23z"/>
<path id="path2863" fill="#494949" d="M517.051,95.075c-11.575,8.986-19.192,23.456-19.192,40.362
	c0,19.644,9.446,33.502,21.628,41.883c11.118,7.46,24.214,10.202,37.923,10.202c9.746,0,20.715-2.285,24.062-3.505
	c1.678-0.606,3.503-1.217,5.331-1.522c2.284-2.893,6.244-12.944,7.311-20.865c-0.607-1.065-2.896-1.368-3.958-0.61
	c-3.506,8.988-12.188,21.781-31.833,21.781c-24.976,0-45.234-17.668-45.234-49.649c0-31.524,19.803-46.299,43.103-46.299
	c22.085,0,28.938,11.878,31.222,22.237c1.063,0.91,3.351,0.759,4.111-0.307c-1.217-9.288-1.978-18.883-2.132-22.387
	c-1.372,0.151-2.438-0.154-4.263-0.609c-7.161-1.98-18.736-3.655-26.958-3.655C542.33,82.132,528.168,86.396,517.051,95.075z"/>
<path id="path2861" fill="#494949" d="M558.485,6.732c0.344-0.346,0.4-0.949,0.344-1.36c-0.06-0.462-0.265-0.814-0.575-0.993
	l-0.127-0.072l-0.146,0.009c-2.126,0.127-4.072,0.188-6.126,0.188c-2.495,0-4.888-0.069-6.565-0.188l-0.148-0.01l-0.129,0.075
	c-0.352,0.201-0.589,0.621-0.638,1.124c-0.049,0.506,0.112,0.974,0.436,1.252l0.113,0.1L546.213,7
	c2.219,0.254,2.424,0.719,2.427,0.719c0,0.415-0.062,1.051-0.538,2.3c-1.094,2.764-4.117,10.03-5.893,14.2
	c-0.471,1.08-1.064,2.487-1.719,4.04c-1.203,2.851-2.668,6.324-3.913,9.051c-3.004-6.897-5.769-13.819-8.575-20.891
	c-1.857-4.557-2.924-7.87-3.123-8.695c0.098-0.201,0.648-0.475,2.547-0.725l1.094-0.145l0.109-0.095
	c0.325-0.277,0.489-0.745,0.44-1.251c-0.049-0.503-0.289-0.925-0.638-1.126l-0.124-0.073l-0.145,0.008
	c-2.822,0.134-5.041,0.188-7.656,0.188c-2.648,0-4.673-0.058-6.567-0.188l-0.156-0.01l-0.134,0.084
	c-0.369,0.23-0.61,0.657-0.65,1.144c-0.036,0.485,0.136,0.942,0.46,1.224l0.114,0.1L514.868,7c2.468,0.288,3.31,1.419,4.745,4.905
	l11.167,27.537c1.33,3.299,2.306,6.117,2.897,8.381l0.062,0.236l0.228,0.093c0.369,0.15,0.749,0.225,1.135,0.225
	c0.364,0,0.71-0.096,0.972-0.271l0.143-0.095l0.051-0.162c1.089-3.408,4.135-10.888,6.581-16.514l3.427-7.805
	c2.941-6.672,5.388-11.701,7.075-14.538c0.807-1.305,1.657-1.882,2.917-1.989l2.09-0.139L558.485,6.732L558.485,6.732z"/>
<path id="path2859" fill="#494949" d="M602.018,38.34l0.033-0.152l-0.066-0.143c-0.273-0.61-0.947-0.884-1.491-0.884
	c-0.315,0-0.599,0.084-0.821,0.243l-0.151,0.18c-1.821,3.632-3.459,5.472-4.289,5.935c-1.364,0.682-3.283,0.901-7.906,0.901
	c-5.287,0-6.647-0.632-7.318-1.305c-0.901-0.957-1.079-3.023-1.079-6.267v-8.946c0-1.229,0-1.229,1.609-1.229h3.681
	c2.217,0,3.875,0.051,4.768,0.304c0.883,0.22,1.334,0.794,1.614,2.049l0.567,2.471l0.098,0.203c0.238,0.286,0.684,0.458,1.191,0.458
	c0.581,0,1.052-0.22,1.26-0.586l0.064-0.112v-0.13c0-0.62-0.048-1.439-0.104-2.357c-0.07-1.156-0.148-2.468-0.148-3.738
	c0-1.328,0.078-2.686,0.146-3.884c0.06-0.97,0.107-1.841,0.107-2.523v-0.129l-0.062-0.112c-0.21-0.369-0.684-0.59-1.265-0.59
	c-0.505,0-0.95,0.171-1.188,0.458l-0.611,2.819c-0.285,1.45-0.642,1.666-1.196,1.85c-0.679,0.228-2.59,0.357-5.239,0.357h-3.681
	c-1.609,0-1.609,0-1.609-1.292V9.498c0-2.051,0-2.051,1.42-2.051h4.569c2.692,0,4.75,0.062,6.04,0.369
	c2.89,0.724,3.471,2.554,4.353,5.323l0.12,0.381l0.09,0.162c0.215,0.262,0.581,0.407,1.032,0.407c0.438,0,1.05-0.15,1.331-0.57
	l0.098-0.145l-0.086-0.933c-0.326-3.698-0.629-6.836-0.972-7.8l-0.148-0.417l-0.428,0.105c-0.705,0.175-4.641,0.175-8.447,0.175
	h-11.932c-2.446,0-4.537-0.053-7.462-0.188l-0.128-0.006l-0.11,0.055c-0.522,0.256-0.612,1-0.627,1.221
	c-0.036,0.557,0.125,0.997,0.439,1.209L569.311,7c3.247,0.384,3.44,0.806,3.44,7.514v22.845c0,6.876-0.396,7.175-3.491,7.446
	l-2.266,0.205l-0.127,0.125c-0.359,0.359-0.415,0.949-0.347,1.383c0.075,0.47,0.292,0.829,0.598,0.981l0.112,0.056l0.125-0.005
	c3.664-0.12,5.874-0.188,8.612-0.188h5.712c5.536,0,11.099,0.061,16.998,0.188l0.312,0.008l0.138-0.284
	C599.979,45.492,601.574,40.567,602.018,38.34L602.018,38.34z"/>
<path id="path2857" fill="#494949" d="M634.814,24.025c-1.812,1.373-4.285,1.55-6.239,1.55c-2.866,0-3.747-0.109-4.011-0.188
	c-0.072-0.264-0.072-1.012-0.072-1.738V8.8c0-1.426,0-1.543,3.637-1.543c7.137,0,9.665,5.003,9.665,9.286
	C637.794,20.06,636.848,22.438,634.814,24.025L634.814,24.025z M653.939,47.639c0.294-0.231,0.442-0.606,0.386-0.98
	c-0.051-0.346-0.266-0.625-0.573-0.745l-0.142-0.032c-1.514-0.11-3.042-0.73-4.1-1.665c-4.37-3.664-7.847-9.015-12.654-16.764
	c-0.331-0.535-0.38-0.781-0.372-0.885c2.108-0.88,8.063-3.99,8.063-10.979c0-5.315-3.009-8-5.527-9.312
	c-3.182-1.728-7.259-1.961-10.827-1.961c-5.812,0-10.32,0.163-14.192,0.507l-0.176,0.05c-0.368,0.185-0.613,0.594-0.654,1.094
	c-0.044,0.545,0.158,1.067,0.52,1.328l0.101,0.075l2.158,0.265c2.067,0.252,2.365,0.7,2.365,6.938v22.787
	c0,6.71-0.156,7.057-3.377,7.447l-1.777,0.211l-0.123,0.144c-0.359,0.417-0.395,1.022-0.308,1.45
	c0.085,0.429,0.295,0.744,0.59,0.889l0.11,0.055l0.125-0.005c2.822-0.116,5.128-0.188,7.912-0.188c2.622,0,4.826,0.072,7.531,0.188
	l0.127,0.006l0.113-0.057c0.466-0.231,0.58-0.841,0.609-1.091c0.064-0.562-0.082-1.049-0.394-1.304l-0.104-0.087l-1.469-0.208
	c-3.263-0.454-3.389-0.731-3.389-7.449V29.36c0-0.906,0-0.906,2.494-0.906c2.437,0,3.264,0.584,4.106,1.818
	c0.965,1.401,2.085,3.177,3.172,4.896c1.135,1.795,2.207,3.49,3.052,4.689c4.357,6.21,7.646,8.201,13.533,8.201
	c1.225,0,2.297-0.123,2.941-0.337L653.939,47.639L653.939,47.639z"/>
<path id="path2853" fill="#494949" d="M669.926,12.99c0-2.449,0.919-6.559,7.066-6.559c5.595,0,7.302,3.641,8.161,6.812l0.095,0.181
	c0.202,0.249,0.545,0.385,0.96,0.385c0.479,0,1.123-0.193,1.404-0.619l0.079-0.122v-0.146c0-2.593-0.533-6.216-1.166-7.914
	l-0.12-0.317h-0.337c-0.449,0-1.294-0.111-2.102-0.36c-1.517-0.408-3.894-0.843-6.023-0.843c-8.034,0-13.433,4.582-13.433,11.4
	c0,5.796,4.429,9.583,7.071,11.325l6.03,3.939c4.382,2.819,4.984,5.739,4.984,8.474c0,3.389-2.303,6.808-7.446,6.808
	c-6.424,0-9.226-4.953-10.448-9.106l-0.062-0.134c-0.19-0.284-0.535-0.438-0.969-0.438c-0.42,0-1.028,0.161-1.355,0.619
	l-0.096,0.136l0.005,0.167c0.122,2.869,0.938,7.566,1.772,9.096l0.063,0.12l0.12,0.069c1.243,0.726,4.722,2.412,10.144,2.412
	c8.377,0,14.004-4.914,14.004-12.227c0-5.075-2.669-9.194-8.158-12.595l-5.081-3.175C673.16,19.183,669.926,16.631,669.926,12.99
	L669.926,12.99z"/>
<path id="path2851" fill="#494949" d="M663.711,139.852h-18.734c-4.265,0-4.416-0.152-3.197-3.654l9.595-26.5
	c1.674-4.567,3.195-8.225,3.653-8.988h0.307c0.915,1.827,2.283,5.943,3.498,9.596l8.228,24.825
	C668.432,139.244,668.127,139.852,663.711,139.852z M703.002,181.277c-6.55-0.764-8.527-3.047-12.946-16.145l-20.864-61.225
	c-2.283-6.698-4.72-13.706-6.702-20.407c-0.305-1.065-1.369-1.37-2.282-1.37c-1.678,1.98-4.263,4.721-7.92,5.789
	c0.458,2.437-0.457,5.328-2.59,10.809l-15.533,41.123c-6.396,17.057-10.661,26.957-13.406,33.963
	c-2.129,5.483-5.478,7.159-9.133,7.463l-5.027,0.457c-0.912,0.76-0.607,3.198,0.308,3.809c4.111-0.152,9.59-0.458,14.618-0.458
	c7.157,0.152,11.882,0.152,15.842,0.458c1.366-0.61,1.366-3.049,0.303-3.809l-5.027-0.457c-3.655-0.304-4.419-1.219-4.419-3.047
	c0-1.676,1.07-5.787,3.353-12.642l5.329-15.989c1.069-3.201,1.979-3.656,5.788-3.656h22.996c4.568,0,5.181,0.455,6.248,3.807
	l6.698,20.713c1.222,3.656,1.98,6.396,1.98,8.07c0,1.525-2.131,2.44-5.327,2.744l-4.419,0.457c-1.069,0.76-0.915,3.198,0.305,3.809
	c4.418-0.152,10.201-0.458,17.513-0.458c6.854,0,12.185,0.152,18.428,0.458c0.76-0.61,1.064-3.049,0-3.809L703.002,181.277
	L703.002,181.277z"/>
<path id="path2847" fill="#494949" d="M713.459,37.23V14.639c0-6.935,0.19-7.364,3.415-7.636l1.719-0.136l0.105-0.071
	c0.317-0.211,0.479-0.65,0.442-1.204c-0.015-0.223-0.104-0.968-0.624-1.225l-0.108-0.055l-0.125,0.005
	c-3.003,0.119-5.249,0.188-7.852,0.188c-2.723,0-4.905-0.066-7.979-0.188l-0.125-0.005l-0.112,0.056
	c-0.518,0.259-0.605,1.006-0.62,1.229c-0.034,0.551,0.127,0.989,0.442,1.199l0.104,0.071l1.712,0.135
	c3.234,0.274,3.425,0.703,3.425,7.638V37.23c0,6.833-0.161,7.186-3.442,7.576l-1.755,0.21l-0.118,0.119
	c-0.36,0.361-0.415,0.952-0.346,1.385c0.075,0.469,0.292,0.826,0.596,0.979l0.114,0.057l0.125-0.005
	c3.229-0.125,5.352-0.188,7.979-0.188c2.521,0,4.621,0.063,7.852,0.188l0.125,0.005l0.108-0.057
	c0.522-0.258,0.611-1.006,0.624-1.229c0.034-0.55-0.128-0.986-0.442-1.195l-1.804-0.269
	C713.618,44.416,713.459,44.062,713.459,37.23L713.459,37.23z"/>
<path id="path2845" fill="#494949" d="M771.313,3.531l0.046-0.176L771.28,3.19c-0.233-0.473-0.89-0.525-1.163-0.525
	c-0.159,0-0.392,0.018-0.597,0.099l-0.159,0.064l-0.085,0.147c-0.814,1.414-1.152,1.529-4.528,1.529h-26.232
	c-2.84,0-4.114-0.149-4.378-1.568l-0.027-0.15L734,2.679c-0.175-0.175-0.461-0.26-0.873-0.26c-0.151,0-0.666,0.012-0.947,0.2
	l-0.174,0.116l-0.037,0.207c-0.443,2.535-1.383,6.552-2.39,9.377l-0.071,0.196l0.094,0.186c0.385,0.765,1.684,1.138,2.38,0.614
	l0.103-0.078l0.054-0.117c0.646-1.469,1.255-2.857,2.734-4.215c1.402-1.285,4.568-1.458,7.48-1.458h3.491
	c1.414,0,1.414,0,1.414,1.541v28.372c0,6.876-0.396,7.175-3.488,7.446l-2.284,0.19l-0.214,0.068
	c-0.381,0.234-0.594,0.709-0.567,1.273c0.021,0.427,0.188,0.958,0.606,1.164l0.11,0.054l0.121-0.004
	c3.882-0.117,6.226-0.188,8.804-0.188c2.481,0,4.526,0.06,8.294,0.188l0.122,0.005l0.112-0.055c0.522-0.258,0.61-1.002,0.625-1.225
	c0.034-0.552-0.127-0.99-0.442-1.2l-2.259-0.271c-3.174-0.273-3.361-0.691-3.361-7.446V8.91c-0.003-0.646-0.003-1.253,0.103-1.356
	c0.107-0.107,0.797-0.107,1.253-0.107h4.502c3.4,0,5.716,0.487,7.073,1.491c0.597,0.441,1.117,2.047,1.391,4.299l0.016,0.141
	l0.09,0.11c0.234,0.284,0.663,0.453,1.152,0.453c0.603,0,1.106-0.259,1.313-0.674l0.062-0.125l-0.016-0.14
	C770.191,11.18,770.629,6.07,771.313,3.531L771.313,3.531z"/>
<path id="path2843" fill="#494949" d="M797.277,84.416c-2.593-0.608-10.664-2.284-19.346-2.284
	c-22.998,0-38.073,7.155-48.276,17.818c-9.443,10.05-13.711,23.148-13.711,36.095c0,13.402,4.878,25.433,14.014,34.57
	c11.727,11.88,28.327,16.907,46.45,16.907c8.225,0,19.189-1.829,27.265-3.96c2.892-0.762,5.636-1.373,7.456-1.373
	c0.614-0.455,0.614-1.372,0.156-1.826c-2.738-1.065-3.654-4.72-3.654-10.812v-8.531c0-7.765,0.154-12.029,6.549-12.792l2.438-0.306
	c1.065-0.912,0.91-3.195-0.151-3.806c-5.027,0.303-10.207,0.454-16.145,0.454c-8.988,0-17.364-0.151-21.78-0.454
	c-1.067,0.454-1.219,3.2,0,3.806l6.701,0.765c9.441,1.065,9.897,1.979,9.897,14.771v6.094c0,4.872-0.759,7.614-1.519,8.68
	c-1.679,2.587-7.312,4.57-16.758,4.57c-30.612,0-45.691-23.001-45.691-52.239c0-22.844,12.953-43.863,42.496-43.863
	c15.534,0,26.955,5.18,31.221,21.626c0.916,0.915,3.657,0.765,4.113-0.456c-1.372-9.139-2.287-17.058-2.287-22.082
	C804.89,86.091,800.168,85.025,797.277,84.416L797.277,84.416z"/>
<path id="path2841" fill="#494949" d="M819.516,6.757c0.322-0.281,0.496-0.739,0.459-1.225c-0.036-0.485-0.277-0.912-0.646-1.142
	l-0.133-0.083l-0.153,0.009c-4.514,0.262-7.173,0.261-11.94,0l-0.13-0.008l-0.117,0.059c-0.354,0.178-0.598,0.535-0.669,0.98
	c-0.082,0.512,0.076,1.042,0.415,1.385l0.122,0.123l1.307,0.144c1.232,0.154,1.999,0.455,2.224,0.622
	c-0.2,0.909-2.419,5.026-3.768,7.525l-0.29,0.54c-1.528,2.955-3.291,6.139-5.522,9.966c-1.672-3.021-3.302-6.344-4.882-9.565
	c-0.623-1.264-1.24-2.522-1.86-3.76c-0.458-0.917-1.893-4.161-1.917-4.666c0-0.128,0.293-0.383,2.253-0.663l0.984-0.15l0.114-0.115
	c0.344-0.346,0.492-0.971,0.356-1.519c-0.103-0.435-0.376-0.754-0.747-0.874l-0.093-0.031l-0.095,0.009
	c-1.558,0.123-3.828,0.186-6.753,0.186c-2.938,0-5.264-0.06-7.327-0.188l-0.144-0.008l-0.129,0.072
	c-0.311,0.179-0.522,0.511-0.597,0.938c-0.085,0.509,0.047,1.041,0.346,1.39l0.113,0.131l1.949,0.346
	c1.682,0.284,2.523,0.425,4.659,4.562l7.486,14.601c1.792,3.454,1.978,4.169,1.978,7.646v3.235c0,6.887-0.156,7.241-3.367,7.576
	l-2.143,0.205l-0.122,0.125c-0.361,0.364-0.413,0.956-0.343,1.39c0.079,0.467,0.296,0.821,0.602,0.972l0.109,0.056l0.124-0.005
	c3.419-0.125,5.643-0.188,8.294-0.188c2.576,0,4.849,0.071,8.616,0.188l0.121,0.005l0.11-0.056c0.305-0.151,0.524-0.51,0.601-0.98
	c0.07-0.434,0.014-1.025-0.35-1.385l-0.126-0.126l-2.588-0.202c-2.938-0.221-3.357-0.705-3.357-7.575v-3.302
	c0-4.755,0.134-5.224,2.915-10.034l3.999-6.916c0.363-0.625,0.711-1.23,1.042-1.814c2.495-4.36,4.3-7.511,6.995-7.979l1.911-0.339
	L819.516,6.757L819.516,6.757z"/>
<path id="path2839" fill="#494949" d="M853.166,131.019c0-33.353,20.558-44.166,36.398-44.166c29.088,0,40.205,27.107,40.205,52.239
	c0,30-17.36,43.709-35.637,43.709C864.131,182.801,853.166,153.558,853.166,131.019L853.166,131.019z M837.937,135.891
	c0,27.414,20.405,51.631,54.217,51.631c29.394,0,52.847-22.389,52.847-53.154c0-26.801-17.669-52.236-52.847-52.236
	C860.78,82.131,837.937,105.434,837.937,135.891z"/>
<path id="path2835" fill="#494949" d="M889.844,27.711c0,13.081-7.736,17.722-14.36,17.722c-13.094,0-16.59-13.255-16.59-21.086
	c0-13.225,7.909-17.917,14.685-17.917C885.583,6.431,889.843,17.895,889.844,27.711L889.844,27.711z M897.164,25.74
	c0-10.717-7.042-22.25-22.509-22.25c-13.159,0-23.081,9.84-23.081,22.889c0,10.931,7.928,21.997,23.081,21.997
	C887.487,48.376,897.164,38.645,897.164,25.74z"/>
<path id="path24" fill="#494949" d="M939.758,13.398l0.06-0.116l-0.009-0.131c-0.125-2.295-0.195-5.26-0.195-8.349v-0.61
	l-0.596,0.135c-0.769,0.176-4.677,0.176-8.455,0.176h-11.68c-2.39,0-4.514-0.054-7.334-0.188l-0.123-0.006l-0.113,0.055
	c-0.524,0.258-0.612,1.002-0.627,1.225c-0.036,0.555,0.126,0.995,0.446,1.206l1.221,0.203c3.223,0.389,3.379,0.739,3.379,7.515
	v22.845c0,6.71-0.156,7.059-3.376,7.448l-1.754,0.21l-0.119,0.118c-0.361,0.357-0.417,0.947-0.35,1.38
	c0.076,0.473,0.294,0.831,0.597,0.985l0.114,0.058l0.127-0.006c2.971-0.122,5.112-0.188,7.912-0.188
	c2.562,0,4.762,0.069,8.427,0.188l0.121,0.005l0.112-0.057c0.415-0.208,0.594-0.772,0.622-1.232c0.033-0.55-0.128-0.984-0.448-1.192
	l-2.38-0.269c-3.235-0.274-3.429-0.691-3.429-7.446v-8.824c0-1.227,0-1.227,1.608-1.227h4.317c2.227,0,3.887,0.051,4.736,0.295
	c0.892,0.284,1.371,0.866,1.709,2.065l0.669,2.628l0.117,0.1c0.628,0.54,1.973,0.51,2.375-0.101l0.084-0.123v-0.146
	c0-0.659-0.052-1.506-0.107-2.449c-0.069-1.151-0.146-2.455-0.146-3.708c0-1.285,0.076-2.645,0.146-3.844
	c0.056-0.986,0.107-1.878,0.107-2.565v-0.146l-0.084-0.123c-0.3-0.455-0.945-0.504-1.206-0.504c-0.527,0-0.986,0.171-1.228,0.459
	l-0.669,2.743c-0.356,1.539-0.783,1.691-1.268,1.865c-0.669,0.225-2.629,0.359-5.236,0.359h-4.317c-1.608,0-1.608,0-1.608-1.224
	V9.498c0-2.051,0-2.051,1.421-2.051h3.87c2.621,0,4.692,0,6.03,0.367c2.722,0.708,3.534,2.529,4.085,5.642l0.031,0.171l0.131,0.114
	c0.245,0.21,0.584,0.327,0.96,0.327C938.926,14.066,939.522,13.86,939.758,13.398"/>
<path id="path2885" fill="#FFFFFF" d="M24.011,136.219c1.363,0.922,2.965,1.33,4.435,1.957c1.821,4.762,0.044,9.441-0.978,7.5
	C25.675,142.271,24.97,139.447,24.011,136.219z M24.096,84.075l-0.112-0.11c-0.132,0-9.465,5.889-15.53,3.062
	c4.517-2.499,20.165-12.441,24.445-15.261c2.02,0.435,2.836-0.292,3.481-0.744c-1.635,0.103-7.057,0.948-4.316-3.903
	c1.054,4.349,8.656,0.348,11.385-0.281c7.605-1.75,7.55,6.379,6.901,9.739c-0.243,1.252,2.33,2.142,3.598,1.961
	c-2.18,5.37-5.901,0.307-6.345,2.356c-0.18,0.83-2.671,1.481-2.66,3.545c0.015,2.818,1.116,1.277,1.217,3.463
	c0.112,2.118-0.902,0.469-0.672,2.759c0.364,3.636,6.378-0.482,8.864,0.5c1.244,0.491,2.067,1.604,3.28,1.385
	c0.354-0.29,0.194-1.665,0.139-2.155c-0.127-1.155-2.262-1.29-3.256-2.866c-0.866-1.375,0.981-5.512,1.983-6.728
	c1.435,6.829,7.835,4.689,8.79,11.869c0.602,2.03-2.2,4.287,0.072,7.593c-1.688,1.639-3.716,9.41-0.183,13.062
	c-0.6,1.655-1.387,5.469,1.758,7.697c-1.057,2.253-0.815,5.007,0.076,7.81c-1.959,0.007-1.569-10.984-13.305-11.334
	c-0.262-0.082-0.325,1.246,0.013,1.841c1.406,2.47,3.293,2.327,2.889,8.142c-0.138,1.987-1.304-0.348-1.926-0.898
	c-1.421-1.254-2.52-1.422-3.139-5.512c-4.769,3.738-4.3,8.265-4.002,10.564c0.003,0.006-1.053-2.868-2.256-5.816
	c-0.064-0.156,4.844-6.059,5.624-7.462c9.901-17.823-6.394,5.761-6.427,5.681c-0.877-2.031-1.644-3.783-2.16-4.336
	c0.126-0.246,2.845-3.278,4.075-5.838c7.659-15.947-4.551,5.311-4.988,4.921c-0.924-0.831-1.686-1.872-2.27-1.497
	c-0.137,2.448-0.722,2.117-0.554,4.617c-1.276,1.703-4.015,4.381-5.93,5.707c0,0-0.478-4.426-0.349-4.582
	c0.961-1.172,4.728-5.209,5.498-6.416c12.549-19.711-5.875,4.748-5.909,4.538c-0.13-0.78-1.14-2.066-2.215-3.163
	c0,0,4.069-5.545,5.07-7.607c7.636-15.699-6.137,6.958-6.29,6.877c-0.33-0.174-0.364-0.17-0.749-0.301
	c-0.383-0.129,0.422-4.521,0.954-7.166c1.034-5.23-1.739-1.015-2.494,7.274c-0.708,0.11-2.426,0.29-3.078,0.881
	c0.421,2.212,0.944,0.511,1.871,2.636c1.11,2.547-1.546,6.721,0.765,9.778c0.894,1.18,0.945,0.981,0.77,1.755
	c-1.422-0.103-2.286-0.13-3.184,1.099c-1.748-7.94-1.694-11.764-1.284-19.833c0.182-3.668,1.386-9.219,0.836-9.323
	c-0.522-0.101-8.837,21.315-10.845,25.511c-3.506-1.184,2.184-19.716,9.413-28.637c0.682-2.838-3.79,2.877-6.461,5.153
	c-2.448,2.088-5.547,4.81-8.925,3.876c4.337-4.587,14.281-13.167,15.386-15.312c0.926-1.839-6.784,5.721-14.93,2.912
	C11.775,94.731,24.075,88.453,24.096,84.075z M38.763,124.354c0.032,1.953-0.106,3.398,0.461,5.383
	c0.923,2.995,0.461,2.071-0.796,1.043c-1-1.113-1.935-2.027-2.415-3.326C35.894,126.531,36.635,126.48,38.763,124.354z
	 M58.453,76.096c-1.189-2.026,1.417-3.96,1.417-3.96c-0.079,5.699,7.206,1.788,11.008,3.598c0.915,0.421,1.557,1.225,1.933,2.07
	C68.721,74.979,61.162,80.723,58.453,76.096z M15.605,30.575c-6.501,0-6.365-9.75,0-9.75C22.002,20.825,22.002,30.575,15.605,30.575
	z M15.605,50.045c-6.65,0-6.65-9.744,0-9.744C22.002,40.301,22.042,50.045,15.605,50.045z M22.276,23.436h5.667v5.575h-5.667V23.436
	z M22.276,42.859h5.667v5.575h-5.667V42.859z M73.736,58.039c0,0-5.931-3.217-12.895-3.681c-6.732-0.447-20.335,4.931-30.779,4.221
	V12.685c0,0,11.909,1.583,16.801-0.304c16.634-6.415,26.873,0.752,26.873,0.752V58.039z M85.228,65.487
	c0.292,1.734-1.316,2.168-1.311,2.168c2.496,0.582,3.69-0.904,4.179-1.843c0.96,3.99-3.062,4.215-4.315,4.454
	c-0.002-0.001,2.038,0.585,2.143,1.914c0.266,3.373,2.436,3.086,2.904,2.82c-0.077,0.406-0.748,2.442-3.185,0.605
	c-0.414,0.409,0.665,1.038,0.877,2.712c0.275,2.118,0.208,4.08,2.652,5.372c-1.499,1.191-3.264-1.912-3.417-1.542
	c-0.175,0.417,2.083,1.555-0.401,7.411c-1.134-0.652-0.501-0.527-1.815-2.088c-1.005-0.841-1.401-1.033-0.561,0.355
	c1.465,1.831,1.811,6.016,1.305,7.146c-1.208-0.526-0.896-1.491-2.321-2.804c-0.131,0.56,0.437,3.334,1.909,4.663
	c2.543,2.297,3.445,5.07,3.491,5.616c0.202,2.087-0.454,4.835-0.702,7.524c-1.221-0.176-2.257-3.64-2.554-3.444
	c-0.36,0.233,0.154,3.392,2.454,5.54c1.114,3.256,0.667,5.004,0.37,5.121c-0.392,0.169-1.632-3.328-2.307-2.72
	c3.276,8.332,0.983,11.235,0.117,13.802c-0.676-2.631-1.02-4.6-1.867-7.58c-1.785,1.4-2.214,3.479-4.396,5.381
	c0-3.398-1.965-11.605-3.522-13.517c-0.071-0.087-2.815,7.356-4.064,10.665c-1.622,4.291-1.874,9.655,0,13.835
	c-4.043-5.754-4.479-16.46-0.988-17.905c0.302-0.765-0.21-3.283-0.988-2.973c-0.224,1.232-0.074,2.287-1.095,3.49
	c-2.679-0.785-1.459-4.054-1.216-5.137c3.474-4.166,1.301-5.129,1.14-5.02c-0.376,0.954-0.705,2.124-1.765,2.557
	c-2.229-3.83-0.8-9.84,3.432-14.332c0.178-1.677-1.895,1.25-3.244,1.148c-0.351-3.232,0.82-8.84,6.796-9.044
	c-1.141-0.334-1.751-0.542-2.027-1.494c1.806-0.269,7.472-0.702,6.537-5.173c-0.537,0.539-0.708,1.341-2.186,2.24
	c-0.993,0.605-2.074,0.657-2.636-0.218c2.629-0.87,1.76-4.067-1.671-3.127c-1.051,0.288-2.589-0.81-2.665-2.029
	c0.764,0.764,2.312,0.199,3.208-0.382c3.861-2.51,6.219,1.125,6.739,1.905c0.156,0,1.732-3.631-3.75-4.609
	c-0.458-1.276-1.711-3.534-5.432-3.249c-1.227-4.328-4.937-2.194-4.814-0.235c-3.942-2.902,0.069-6.566,1.66-7.131
	c1.104,0.091,0.86,3.587,2.798,2.999c0.469-0.14-1.507-2.408-0.75-3.437c1.778-1.015,1.738,1.301,2.614,0.438
	c0.435-1.516,2.179-2.365,3.617-2.527C78.231,63.237,81.364,67.655,85.228,65.487L85.228,65.487z M121.484,58.743
	c-8.751,0.596-26.905-4.385-31.521-4.385c-9.523,0-14.129,3.718-14.129,3.718s0.014-43.228,0-44.784c0,0,12.514-5.867,21.618-2.507
	c11.148,4.115,24.032,2.292,24.032,2.292V58.743z M133.005,41.081c4.824-0.704,5.55,4.988,5.55,4.988h-0.009
	c-1.188-0.944-3.574-1.372-5.191-0.329c-5.389,3.469-10.244,3.508-10.244,3.508v-8.693
	C123.111,40.555,124.135,42.376,133.005,41.081L133.005,41.081z M138.714,29.18c-0.036-0.258-0.09-0.653-0.167-1.21
	c-0.123-0.87-2.616-1.372-4.38-0.602c-2.466,1.077-8.645,4.605-10.9,3.938v-8.692c5.561,2.413,7.733,0.234,9.522,0.234
	c5.491,0,5.766,5.122,5.766,5.122C138.628,28.527,138.68,28.922,138.714,29.18z M132.5,119.279c-1.625,0.424-5.91,2.135-6.943,3.816
	c0.548-9.265-2.444-18.364-3.397-20.562c-1.856-4.281,0.831,9.963,1.015,13.246c0.004,0.145-15.376-19.767-6.09-4.432
	c2.406,3.975,6.166,6.568,6.167,6.637c0.063,2.765-0.121,4.799-0.647,6.281c-0.946,0.757-20.942-26.609-9.889-7.656
	c1.37,2.35,9.389,9.461,9.322,9.605c-0.507,1.08-1.409,2.652-2.651,3.812c-0.211-0.21-4.614-3.456-4.644-3.653
	c-0.333-2.117-0.345-4.114-2.958-2.617c0,0-9.853-11.469-5.29-3.431c1.994,3.514,3.302,3.903,3.833,4.528
	c0,0-1.527,2.072-2.02,4.273c-0.197,0.881-8.542-9.252-5.268-2.887c1.049,2.039,4.864,4.265,4.823,4.41
	c-0.39,1.324-0.786,2.608-1.204,3.443c-0.525,1.058-7.852,6.897-7.841,6.893c0-0.002,1.432-4.627,4.547-6.893
	c1.777-1.301,1.782-1.016,2.961-1.755c-0.025-0.684-0.683-1.8-1.537-2.095c-1.068-0.378-4.536,0.252-4.536,0.252
	c0.324-1.733-1.194-5.474-1.174-9.588c-1.306,0.129-3.597,2.148-4.151,3.295c-0.4,6.815-1.882,4.773-3.266,9.677
	c-1.506-2.056,0.104-5.01-1.373-6.934c-2.031-2.646-2.338-4.431-2.639-7.688c0.475-0.264,2.547-2.555,0.66-7.359
	c-0.308-7.55,3.066-10.436-2.966-15.721c0.507-0.162,0.871-3.946,0.871-3.952c4.445,2.372,3.564-2.744,5.295-3.749
	c2.75-1.595,2.251-3.249,1.017-5.309c7.862,2.235-0.355,7.61,3.204,7.726c2.581,0.079,4.311-0.575,5.431-2.311
	c1.194-1.834-0.206-2.959,3.129-5.933c0.333-0.298,1.217-2.283-1.428-2.829c-0.579-0.12,0.005-2.382,0.005-2.382
	c-2.118,1.792-2.784,4.316-6.188,2.72c-1.743-0.819-2.873-0.014-3.586,0.331c0,0-0.362-1.424,1.08-1.906
	c3.725-1.251,4.645-2.737,4.442-3.551c-0.504-1.935-0.655,0-0.547-2.039c0.046-0.81,0.989-1.911,1.77-2.854
	c2.526-3.048,4.315-1.905,4.96-1.635c1.469-1.136,1.728-1.056,3.094-1.596c2.339-0.919,7.41,0.608,10.242,1.924
	c1.374,0.622,3.015,0.994,4.618,0.641c-0.015,0.826-0.595,1.271-1.17,1.438c-0.885,0.274-1.939,0-1.87,0.646
	c0.04,0.379,1.251,0.445,2.009,0.65c4.199,1.146,9.635,4.908,6.065,4.116c-0.42-0.095,2.575,2.239,4.835,5.27l8.006,7.779
	c-0.369,0.441-3.175,0.041-12.066-8.291c-1.265,1.128,10.814,10.232,15.8,19.895c-0.43,0.302-6.645-1.963-8.885-4.273
	c-3.452-3.57-7.42-12.65-9.05-11.323c-0.196,0.077,6.564,10.602,9.904,16.844c1.686,3.16,3.074,7.686,3.188,11.095
	c0.536,16.815-1.996,15.522-1.994,15.524c-3.94-13.252-5.783-28.643-11.53-35.742C123.699,90.269,132.138,105.525,132.5,119.279z
	 M115.083,134.397c-1.777,1.56-2.938,2.114-2.551,1.339c0.433-0.863,0.753-1.596,0.994-2.24
	C113.608,133.28,115.083,134.397,115.083,134.397z M113.915,132.311c0.394-1.414,0.395-2.389,0.578-3.635
	c0.081-0.535,0.094-0.471,0.119-0.921c0.007-0.147,3.852,3.2,4.067,3.335c-0.965,1.209-1.79,1.642-2.71,2.499
	C115.318,133.027,113.879,132.446,113.915,132.311z M126.396,136.588c-5.337,5.271-13.343,3.362-19.651,6.186
	c-5.716,2.084-9.856,7.37-15.851,8.707c-1.763,0.568-2.054,1.449-0.93,1.418c0.659-0.018,4.312,3.797,10.159,0.856
	c1.951-0.982,8.015-4.36,9.04-4.555c-3.281,3.125-4.929,5.92-7.862,7.569c-1.796,1.007-9.109,3.625-16.403,2.209
	c-3.231-0.629-5.719,2.353-4.896,2.284c1.73-0.463,3.67-0.228,4.836,1.3c2.117,1.658,5.184,3.727,7.822,0.645
	c0.877-1.021,5.065-3.194,9,0.798c-4.186-0.219-3.771,7.312-11.703,6.428c-2.936-0.021-9.424-6.736-11.271-4.661
	c-3.279,3.685,7.045,7.18,2.574,11.813c-4.036,4.185-8.86-3.333-8.86-3.333c2.519,1.057,7.167,1.736,5.121-2.357
	c-0.812-1.626-2.357-3.088-2.357-6.096c-0.354-1.498-9.594,11.897-15.707,5.846c-2.401-2.377-7.265-7.592-11.671-9.578
	c11.668-0.992,13.446,3.679,14.003,4.428c3.731,5.035,7.18-0.078,7.974-0.976c1.216-1.384,2.937-3.287,2.327-3.576
	c-4.525-2.146-9.696-2.601-13.558-0.829c8.268-11.365,14.701-0.722,14.7-0.725c0.906,0.564-0.231-6.74-8.409-7.144
	c-5.107-0.251-9.603,4.345-13.125,4.34c-2.864-0.004-11.546-5.868-13.588-11.076c5.052,3.78,11.496,5.948,15.512,3.554
	c7.551-4.501,17.062,2.286,17.514,1.477c-2.11-1.652-6.915-8.092-19.88-4.422c-5.03,2.889-7.151-2.143-10.24-2.227
	c5.255-4.663,8.897-2.292,10.733-2.149c0.437,0-2.192-2.161-4.034-2.354c-14.329-1.492-23.404-5.431-23.404-5.431
	c-0.075,0,1.194-2.889,7.352-0.806c0,0-5.522-3.382-5.477-7.727c0.18-2.679,1.475-5.547-0.574-7.78
	c8.316-0.34,2.409,11.257,8.248,14.245c0.125,0.048-1.719-2.771,0.88-4.956c1.207,3.405,4.175,5.166,6.263,5.718
	c0.49-0.27,1.096-1.314,1.096-1.312c-2.197-3.633-2.486-7.866-1.895-12.716l0.087-0.048c0.473,0.022,1.272,1.666,1.834,2.875
	c1.212,2.608,1.184,6.361,3.6,9.454c1.338,1.703,2.167,3.404,3.367,4.23c0.519-1.209,0.135-3.283,0.055-3.836
	c-0.272-1.969-1.507-5.419,1.86-8.467c1.574,4.547,3.716,3.229,4.006,5.409c0.401,3.053,0.269,2.566-0.042,4.911
	c0.159,3.231,3.096,4.142,5.703,6.207c5.877,3.198,9.779,4.93,12.337,9.025c1.249-6.912-17.408-8.295-15.001-21.631
	c-0.25-5.326,0.663-5.773-3.112-9.025c7.486,0.218,11.565,12.506,11.971,14.748c0.749,4.121,3.251,4.336,6.688,9.71
	c0.494,0.18-6.144-14.317,1.769-26.729c0,0,2.667,6.448,1.41,10.677c-0.759,2.546-0.055,5.364,0.086,6.96
	c0.145,1.627-0.325-5.883,5.328-9.769c0.351,2.843,3.075,7.245,0.494,11.961c-3.14,5.739-3.369,3.677-3.417,10.735
	c0.285-0.121,1.098-4.865,3.251-7.561c4.552-5.688,1.301-8.751,5.745-13.682c0.353,2.466,0.981,1.49,1.246,3.685
	c0.596,4.931-4.551,10.323-3.414,10.16c1.311-0.185,3.414-1.326,4.119-5.065c0,0,1.896,3.414,0.163,4.552
	c-3.142,2.062-3.794,4.28-3.307,6.773c2.52-3.007,5.961-6.34,5.365-10.622c0.285-2.586,3.087-3.633,3.644-9.639
	c0.094-0.996,1.089-2.205,2.083-2.734c-0.434,3.373,2.188,6.863-0.792,10.991c0.679,0.362,3.2-3.222,6.884-1.915
	c-7.395,1.333-5.237,9.344-10.902,13.053c-1.708,1.117-1.417,2.373-1.928,2.514c5.059-0.286,8.958-6.311,9.634-6.77
	c5.085-3.439,6.198-3.964,8.23-9.539c0.796-2.12,0.218-3.057,3.037-5.915c1.235,2.819-0.56,8.663-0.988,9.923
	c-0.91,2.689-4.107,5.019-3.43,5.019c13.63-6.015,13.459-10.056,16.719-14.362c0.979-1.646,5.827-4.502,7.641-4.768
	c-0.444,0.897-2.329,2.408-2.417,4.039c-0.165,3.014-1.137,4.852-2.66,7.268c0.847,1.051,2.474-1.983,4.137-0.461
	C129.086,132.695,128.106,135.146,126.396,136.588L126.396,136.588z M128.674,135.789c-0.809,3.971-2.18,7.65-4.57,11.07
	c-1.672,2.426-2.353-2.289-0.911-6.854C125.239,139.191,127.284,137.605,128.674,135.789z M118.294,35.04
	c-0.317-0.119-0.979-0.241-1.399-0.241c-0.418,0-0.643,0.595-0.123,0.733c0.333,0.093,0.95,0.202,1.544,0.229
	C118.72,35.799,118.59,35.165,118.294,35.04z M116.744,36.946c0.326,0.098,0.923,0.186,1.535,0.23
	c0.384,0.049,0.259-0.595-0.038-0.716c-0.298-0.107-0.96-0.235-1.369-0.243C116.432,36.217,116.224,36.789,116.744,36.946z
	 M116.744,45.63c-0.301-0.354-1.114-1.027-1.841-1.542c-0.419,0.345-1.278,0.969-1.828,1.255c-0.408-0.461-0.947-1.097-1.775-1.74
	c-0.498,0.34-1.933,1.65-2.538,1.995c0.873,0.022,2.175,0.311,2.224,1.122c0.029,0.659-0.049,4.767,0,5.518
	c0.534,0.114,1.165,0.06,1.944,0.017c0.036-0.582,0.024-5.318,0.036-5.893c0.261-0.145,0.569-0.292,0.72-0.425
	c0.301,0.224,1.216,1.275,1.746,1.558c0.361-0.276,1.312-1.109,1.729-1.501C117.603,45.555,117.126,45.276,116.744,45.63
	L116.744,45.63z M114.348,38.729c0.498-0.901,1.232-2.36,1.184-3.469c-0.065-1.365-0.902-3.39-2.905-4.056
	c-2.538,0.903-4.106,2.905-4.175,5.274c-0.047,1.385,1.131,4.24,3.566,4.256C112.767,40.013,113.559,39.249,114.348,38.729z
	 M112.808,39.266c-0.47-0.229-2.185-1.551-2.578-2.563c-0.514-1.365-0.514-2.874,0.939-3.759c1.134,0.417,2.456,1.532,2.575,2.557
	C113.905,36.83,113.522,38.405,112.808,39.266z M112.744,28.711l1.824-1.994c0,0-0.812-0.636-1.292-1.226
	c0-0.417,0-4.411,0.176-4.626c-1.373-1.224-2.374-1.377-2.965-1.3c-1.111,0.167-2.248,1.591-2.609,2.069
	c-0.264,0.377-0.195,0.851,0,1.027c0.221,0.181,0.507,0.364,0.81,0.545c-0.05-0.031-0.098-0.061-0.15-0.083
	c-0.521,0.49-1.278,1.898-1.252,2.854c0.01,0.96,0.875,2.354,1.455,2.875c0.644-0.498,1.595-1.33,2.993-1.601
	C111.888,27.922,112.209,28.33,112.744,28.711z M111.645,24.11c-0.898-0.321-2.67-1.154-3.312-1.685
	c-0.171-0.135-0.188-0.212,0.021-0.546c0.409-0.608,0.874-1.14,1.2-1.115c0.279,0,2.082,0.964,2.022,1.471
	C111.64,22.594,111.65,23.351,111.645,24.11L111.645,24.11z M111.658,26.813c-0.467,0.025-0.876,0.15-1.475,0.437
	c-0.49-0.4-1.765-1.94-0.825-3.661c-0.13-0.078-0.265-0.146-0.39-0.225c0.865,0.485,1.876,0.91,2.672,1.165
	c-0.008,0.685-0.027,1.302-0.027,1.527C111.611,26.348,111.633,26.584,111.658,26.813z M106.414,18.61
	c-0.431,0-3.315,0.062-3.389-0.103c-0.21-0.617-0.264-1.369,0.231-2.414c0.248-0.521-0.231-0.739-0.417-0.215
	c-0.181,0.511-1.625,2.507-3.125,3.15c-0.771,0.304,0.94,1.014,0.823,0.981c-0.009,1.921,0.267,4.804,0.677,5.958
	c0.254,0.688,1.034,1.805,1.571,1.464c0.349-0.219,1.101-1.714,1.34-1.904c0.417-0.339,0.01-0.915-0.338-0.569
	c-0.386,0.338-0.714-0.188-0.82-0.54c-0.127-0.341-0.48-4.568-0.301-4.649c0,0,3.41-0.414,3.749-0.414
	C106.646,19.356,106.659,18.61,106.414,18.61L106.414,18.61z M97.048,26.402l1.409-1.831c-1.022-0.176-1.445-0.365-2.158-1.178
	l0.028-4.543l-1.439-1.439l-0.493,0.054l-2.257,1.982c-0.232,0.345,0.374,0.345,0.675-0.066l1.639,0.938l0.072,4.397
	c0.125,0.525,0.56,1.035,1.21,1.685H97.048z M95.828,16.315l0.792-0.688v-1.104l-1.068-1.036l-1.06,0.903l0.025,1.272l0.656,0.652
	H95.828z M92.211,14.913c-0.605-0.073-2.607,0.096-3.329,0.21c-0.724,0.11-0.724,0.461-0.122,0.535
	c0.599,0.062,0.714,0.188,1.03,0.995c0.29,0.812-1.155,4.494-1.515,5.36c-0.421-0.631-1.954-4-1.954-4.457
	c0-0.328,0.676-0.656,0.966-0.734c0.566-0.175,0.554-0.563,0.126-0.647c-1.197-0.17-5.417-0.541-6.163-0.634
	c-0.539-0.046-0.784,0.578-0.131,0.578c0.677,0.019,1.38-0.183,2.117,0.899c0.853,1.225,3.526,6.973,4.164,9.389
	c0.315-0.508,2.983-8.244,3.137-9.062c0.191-0.801,0.754-1.583,1.539-1.815C92.886,15.311,92.812,14.966,92.211,14.913z
	 M79.554,33.612c0.035,3.218,1.314,3.49,2.778,4.333c1.386,0.784,3.714,0.626,5.458,0.165c0.662-0.192,1.019-0.232,0.998,0.339
	c0,0.356,0.501,0.28,0.501,0.014c0-0.262,0.023-2.961,0.023-3.259c0-0.337-0.487-0.288-0.487,0c0,0.45,0,0.584-0.442,1.227
	c-1.203,1.776-4.207,1.705-5.815-0.468c-0.551-0.74-1.053-1.729-0.414-1.916c0.633-0.194,2.566,0.208,3.844,0.315
	c0.768,0.05,2.534,0.23,2.756,0.357c0.196,0.147,0.495,0.333,0.495-0.053c0.018-0.377,0.018-1.617,0.018-2.001
	c0-0.371-0.289-0.192-0.505-0.062c-0.219,0.153-2.103,0.468-2.857,0.6c-0.76,0.141-3.096,0.329-3.712,0.12
	c-0.629-0.208-0.42-1.471,0.14-2.194c1.628-2.155,4.918-2.005,6.109-0.212c0.409,0.624,0.409,0.771,0.409,1.24
	c0,0.281,0.472,0.315,0.472,0c0.028-0.305,0.039-3.561,0.039-3.822c0-0.254-0.477-0.346-0.477,0c0,0.237-0.523,0.376-1.04,0.237
	c-1.021-0.321-3.999,0.139-5.326,0.866C81.34,30.111,79.529,31.664,79.554,33.612L79.554,33.612z M80.123,39.322
	c0.036,0.914,0.372,8.784,0.271,9.876c-0.062,0.625,0.775,1.286,1.54,1.808c0.371-0.45,1.18-1.626,1.849-2.122
	c0.394-0.322,0.121-0.535-0.184-0.415c-0.602,0.28-1.209,0.062-1.268-0.635c-0.056-0.697-0.056-7.469,0-8.446
	C81.866,39.389,80.558,39.364,80.123,39.322z M86.614,45.755c-0.522,0.493-1.455,1.771-1.434,2.715
	c0.014,0.965,0.479,1.894,1.038,2.415c0.955-0.667,1.552-1.583,3.14-2.196c0.196,0.742,0.719,0.855,1.338,1.321
	c0.371-0.403,1.721-2.062,2.018-2.351c0.3-0.284,0.128-0.576-0.296-0.284c-0.426,0.284-0.718,0.109-1.429-0.655
	c0.026-0.414-0.048-3.797,0.117-3.986c-0.648-0.698-1.244-1.647-2.01-1.577c-1.111,0.093-2.527,2.033-2.877,2.537
	c-0.28,0.362,0.012,1.752,0.221,1.926C86.514,45.688,86.55,45.695,86.614,45.755L86.614,45.755z M87.392,46.32
	c0.621,0.346,0.934,0.133,1.897,0.028c-0.005,0.607-0.02,1.153-0.022,1.445c-0.425,0.304-0.948,0.57-1.549,0.866
	C87.241,48.265,86.542,47.931,87.392,46.32z M86.884,43.529c0.405-0.619,0.66-0.739,0.984-0.739
	c0.292,0.018,1.421,0.794,1.362,1.316c0.055,0.34,0.068,1.047,0.064,1.77c-0.845,0.103-1.44,0.199-2.388-0.6
	C86.731,45.135,86.683,43.851,86.884,43.529z M93.698,42.28c-0.72,0.359,0.961,1.025,0.849,0.995
	c-0.022,1.905-0.407,5.02,0.248,6.009c0.402,0.605,1.325,1.001,1.941,0.764c0.591-0.236,1.347-1.418,1.571-1.612
	c0.44-0.329,0.065-0.679-0.303-0.339c-0.361,0.339-1.346,0.098-1.479-0.245c-0.103-0.357-0.229-4.515-0.057-4.599
	c0,0,1.188-0.025,1.502-0.015c0.25,0,0.267-0.755,0.023-0.755c-0.433-0.007-1.389-0.092-1.445-0.264
	c-0.143-0.391,0.034-1.659,0.28-2.172c0.252-0.52-0.23-0.748-0.423-0.24C96.211,40.346,94.965,41.656,93.698,42.28z M94.044,33.627
	c0.071,1.801-0.865,3.694-1.886,4.549c1.764-0.458,1.994-1.509,2.958-2.748c0.533,0.789,1.524,1.74,2.248,2.152
	c0.509-0.337,1.952-1.956,2.268-2.29c-1.04-0.278-3.049-1.341-3.549-2.462c-0.395-0.831-0.301-1.225,0.093-1.88
	c0.35,0.461,2.792,1.583,3.891-0.29c-1.201-0.438-2.282-1.225-2.647-1.861c-0.322,0.268-1.396,1.438-2,1.808
	c-0.14-0.644-1.127-1.336-1.928-1.48c-0.26,0.279-2.144,1.715-3.003,2.134c-0.265,0.127-0.165,0.704,0.206,0.558
	c0.352-0.153,0.933-0.595,1.606-0.915C93.08,31.204,93.964,31.998,94.044,33.627L94.044,33.627z M102.485,33.919
	c0.216-1.091,0.982-1.539,1.335-1.868c0.498,0.552,0.998,1.176,1.746,1.176c0.731,0.006,1.491-0.333,1.728-0.635
	c-0.604-0.486-1.979-1.934-2.255-2.206c-0.696,0.386-3.72,1.956-3.977,3.77c-0.369,2.674,0.479,3.208,1.653,4.676
	c0.66,0.833,1.766,0.873,2.268,0.744c0.542-0.376,2.522-2.255,2.742-2.491c0.199-0.231-0.089-0.442-0.335-0.206
	c-0.246,0.224-0.15,0.321-0.478,0.37c-0.336,0.054-1.684,0.28-2.467-0.128C103.468,36.606,102.191,35.397,102.485,33.919z
	 M101.006,42.456c-0.446,0.454-1.226,0.977-1.958,1.788c0.605,0.042,1.107,0.172,1.399,0.752c0.299,0.576,0.046,3.002,0.088,3.938
	c0.048,0.908,0.598,1.1,1.318,1.853c0.719-0.183,2.722-1.02,3.398-1.483c-0.061,0.745,0.881,1.582,1.438,1.745
	c0.373-0.406,0.779-0.628,1.328-1.139c-0.535-0.357-0.465-0.406-0.666-1.116c-0.156-0.685,0.039-3.279,0.057-4.39
	c-0.425-0.643-1.121-1.412-1.833-1.946c-0.504,0.459-1.183,1.073-1.978,1.91c0.592-0.08,1.759,0.158,1.815,0.656
	c0.034,0.643,0.131,2.047,0,3.139c-0.134,1.1-3.094,0.595-3.132-0.145c-0.066-0.762,0.151-2.953,0.166-3.989
	C102.028,43.385,101.78,43.032,101.006,42.456L101.006,42.456z M81.357,69.08v-0.109c-1.711-0.246-3.052-1.442-4.619-2.035
	c-2.165-0.818-4.461,0.853-4.461,1.118c0,0.584,0.615,0.882,2.366-0.22c-1.372,1.59,0.188,2.881,0.188,2.881
	c-0.57-0.085-1.385-0.275-1.905-0.575c-0.106,0.575,0.685,0.784,1.062,1.035C76.893,72.368,78.804,69.572,81.357,69.08z
	 M76.463,70.556c0,0,0.771-0.835,0.769-1.433c-0.002-0.811-0.766-1.402-0.766-1.402c0.657,0.189,2.215,1.066,2.773,1.434
	L76.463,70.556z M60.539,48.522l0.833-0.922c-0.938-0.174-0.501-0.165-0.998-0.622l-0.029-3.817l-1.22-1.79l-0.462,0.065
	l-1.912,1.785c-0.506,0.442-0.06,0.655,0.529,0.167l1.264,0.653l0.031,4.044c0.106,0.5,0.55,0.615,1.165,1.249L60.539,48.522z
	 M60.954,35.235c0.646,1.833,2.165,2.41,3.297,2.5c0.336-0.626,0.962-1.58,1.306-2.023c0.51-0.676-0.01-1.083-0.366-0.304
	c-0.274,0.6-1.744-0.055-2.277-0.567c-0.715-0.666-1.16-2.414-0.59-3.029c0.577-0.62,1.403-0.336,2.468-0.366
	c0.703-0.035,0.853-0.682,0.971-1.012c-0.339-0.16-0.845-0.448-1.511-0.849c-0.687,0.436-1.745,1.336-2.203,1.715
	C61.478,31.781,60.309,33.449,60.954,35.235z M63.713,45.328c-0.693,0.712-1.207,1.5-1.198,2.491
	c0.035,0.942,0.349,1.881,1.309,2.306c0.849-0.626,1.943-1.386,2.997-1.584c0.516,0.62,1.31,1.034,1.785,1.409
	c0.33-0.399,1.381-1.253,1.673-1.518c0.276-0.283,0-0.678-0.292-0.307c-0.224,0.341-0.965,0.094-1.176-0.255
	c0-0.401-0.385-4.643-0.215-4.839c-0.611-0.682-1.667-2.221-2.376-2.145c-1.032,0.106-2.577,1.582-2.91,2.065
	c-0.252,0.362,0.075,2.108,0.273,2.275C63.636,45.266,63.663,45.28,63.713,45.328z M66.429,45.692
	c-0.78,0.017-1.45-0.224-2.301-0.973c-0.161-0.136-0.313-1.104-0.128-1.42c0.374-0.595,0.374-0.78,0.7-0.773
	c0.254,0,1.824,0.949,1.741,1.455C66.5,44.342,66.47,45.025,66.429,45.692z M64.365,45.834c0.715,0.481,1.125,0.418,2.026,0.33
	c-0.038,0.489-0.071,0.938-0.071,1.138c0,0.216,0.088,0.387,0.15,0.57c-0.466,0.167-1.06,0.267-1.518,0.495
	C64.538,48.001,63.013,46.959,64.365,45.834z M70.247,37.969L71.1,37.05c-0.958-0.182-0.958-0.117-1.467-0.576l0.037-4.42
	l-0.835-1.232l-0.446,0.059l-1.922,1.774c-0.518,0.464-0.054,0.684,0.522,0.171l0.993,0.606l0.036,4.163
	c0.102,0.499,0.539,0.67,1.151,1.301L70.247,37.969z M68.745,22.499c-0.396-0.023-0.995,0.7,1.315,0.938
	C70.419,23.478,70.9,22.63,68.745,22.499z M68.772,21.117c-0.382-0.021-0.98,1.031,1.325,0.945
	C70.458,22.049,70.725,21.229,68.772,21.117z M69.215,28.062l-0.989-1.025l-0.995,0.895l0.019,1.232l0.609,0.624h0.618l0.739-0.667
	V28.062z M67.203,18.603c-0.672-0.46-1.404-1.579-3.025-1.651c-1.63-0.065-3.469,1.408-4.066,2.334
	c-0.793,1.225,0.179,2.3,1.215,3.095c-0.662,0.567-1.583,1.442-2.436,2.24c0.341,0.371,2.208,1.252,3.255,1.228
	c1.583-0.035,3.046-0.852,3.949-1.576c1.647-1.303,1.075-2.687-0.6-3.665c-0.16-0.097-0.315-0.124-0.474-0.155
	C66.06,19.627,66.968,18.893,67.203,18.603z M63.042,22.013c0.55,0.249,1.11,0.497,1.721,0.857c0.884,0.5,0.429,1.451-0.522,1.89
	c-0.968,0.445-2.7-0.806-2.969-1.318C61.625,23.134,62.292,22.605,63.042,22.013z M64.788,19.688
	c-0.146,0.117-0.561,0.454-1.01,0.812c-0.265,0.046-0.533,0.076-0.809,0.042c-0.829-0.119-1.229-0.744-1.611-1.246
	c-0.394-0.524,0.625-0.959,1.126-0.906C62.993,18.46,64.116,19.062,64.788,19.688z M57.969,23.276
	c-2.424,0.611-3.557-1.332-3.8-1.852c0.98-1.001,2.645-2.64,3.66-3.472c-0.67-0.619-0.948-1.643-2.139-1.73
	c-1.039,0.028-3.461,1.205-3.886,4.282c-0.407,2.954,2.365,4.55,4.562,4.639c0.733,0,1.646-0.947,2.1-1.171
	C59.44,23.495,59.079,23.022,57.969,23.276z M53.993,20.842c-0.611-1.969-0.381-2.646,0.841-3.619
	c0.275,0.678,0.976,1.167,1.367,1.401C55.511,19.296,54.439,20.513,53.993,20.842z M51.191,19.09
	c0.414-0.406-0.027-0.701-0.396-0.348c-0.273-0.327-0.974-1.05-1.349-1.491c-0.397,0.332-1.31,0.879-1.819,1.164
	c-0.398-0.456-0.89-0.456-1.688-1.081c-0.441,0.338-1.418,1.055-1.945,1.692c0.928,0.27,1.627,0.324,1.685,1.12
	c0.035,0.648-0.067,4.637-0.013,5.369c0.497,0.108,1.104,0.06,1.808,0.023c0.056-0.571,0.029-5.575,0.029-6.13
	c0.268-0.149,0.541-0.293,0.674-0.417c0.292,0.224,0.871,1.067,1.339,1.345C49.875,20.07,50.795,19.487,51.191,19.09z
	 M43.539,29.425c-1.053,0.095-2.574,1.326-3.028,2.386c-0.182,0.424,0.078,1.952,0.271,2.12c0.137,0.12,0.246,0.204,0.366,0.297
	c-0.691,0.643-1.34,1.19-1.32,2.145c0.028,0.92,0.76,1.738,1.704,2.167c0.506-0.77,1.296-1.242,2.14-1.441
	c0.07,0.735,0.241,1.272,0.722,1.643c0.346-0.384,1.731-1.58,1.999-1.852c0.293-0.275,0.074-0.607-0.268-0.275
	c-0.203,0.188-0.699-0.091-0.844-0.333c0-0.401,0-4.634,0.177-4.825C44.834,30.78,44.239,29.349,43.539,29.425z M43.622,33.721
	c-1.174,0.76-1.548,0.735-2.356-0.176c-0.401-0.466-0.365-1.344-0.18-1.675c0.365-0.573,1.004-1.15,1.309-1.144
	c0.264,0.018,1.21,1.167,1.145,1.669C43.588,32.672,43.607,33.184,43.622,33.721L43.622,33.721z M43.634,35.837
	c-0.007,0.229,0,0.424,0.004,0.63c-0.228,0.058-0.482,0.111-0.799,0.271c-0.431-0.365-2.47-1.033-1.134-2.11
	c0.82,0.482,1.136,0.106,1.929-0.384C43.639,34.935,43.634,35.589,43.634,35.837L43.634,35.837z M42.718,26.876
	c-0.143-0.182-0.415-0.476-0.428-0.846c0-0.244,0.03-2.796,0.03-3.114c0-0.301-0.603-0.269-0.603,0
	c-0.028,0.454,0.04,1.227-0.365,1.853c-1.12,1.731-3.251,2.445-4.75,0.321c-0.51-0.705-0.631-1.772-0.695-2.534
	c-0.102-1.018,0.67-2.333,0.714-2.453c1.907-2.499,4.552-0.643,4.767,0.373c0.142,0.678,0.294,1.508,0.294,1.944
	c-0.018,0.29,0.607,0.26,0.62-0.04c0-0.311,0.018-4.151,0.018-4.42c0.011-0.249-0.504-0.33-0.515,0
	c-0.027,0.607-0.386,0.66-0.851,0.51c-0.965-0.287-3.104-0.746-4.347-0.032c-1.094,0.644-2.77,2.151-2.74,4.047
	c0.034,3.12,1.211,3.382,2.579,4.223c1.281,0.754,3.053,0.266,4.67-0.201c0.642-0.175,0.72,0.23,1.029,0.685
	C42.667,27.891,43.091,27.444,42.718,26.876z M34.069,31.286c-1.079,1.652-1.671,4.258,0.2,5.781c0.881,0.736,1.611,1.31,3.407,0.99
	c0.356-0.713,0.517-0.949,1.147-1.772c-1.239,0.2-2.195-0.024-3.099-0.708c-1.862-1.445-1.286-3.771-0.736-4.566
	c1.004-1.491,2.433,0.64,2.688,0.931c0.332-0.397,0.905-0.964,1.465-1.404c-0.555-0.733-1.009-1.414-1.385-1.856
	C36.565,29.111,34.816,30.179,34.069,31.286L34.069,31.286z M34.839,45.562c-0.399,2.97,2.401,4.737,3.748,5.309
	c0.339-0.683,1.026-1.79,1.701-2.566c0.513-0.598-0.052-0.756-0.513-0.296c-0.62,0.677-2.47,0.034-2.96-0.86
	c0.893-0.674,3.224-2.623,4.238-3.454c-0.669-0.627-1.705-2.188-1.865-3.085C38.284,41.219,35.294,42.475,34.839,45.562z
	 M37.731,42.345c0.27,0.688,1.13,1.998,1.519,2.228c-0.668,0.671-2.311,1.785-2.772,2.11C35.636,45.627,35.183,43.905,37.731,42.345
	z M43.855,41.266c-0.581,0.549-1.039,1.049-1.887,1.72c0.395,0.454,1.063,1.025,1.124,1.805c0.051,0.788,0.021,4.443,0.07,5.358
	c0.621,0,0.511,0.065,1.579,0.023c-0.105-0.62-0.016-5.364-0.016-6.043c0.401-0.381,0.458-0.441,0.917-0.783
	c0.33,0.289,1.103,0.46,1.103,0.967c0,0.512,0.153,2.763-0.028,3.595c-0.224,1.015-0.124,1.745,0.424,2.77
	c0.417-0.465,1.97-1.551,2.306-1.822c0.333-0.288,0.16-0.504-0.27-0.388c-0.46,0.1-0.541,0.188-0.541-0.103
	c0-0.546-0.218-3.018-0.25-4.595c-0.056-1.582-0.829-2.048-1.272-2.265c-0.454,0.503-1.464,1.139-2.07,1.652
	C44.586,42.822,44.361,42.066,43.855,41.266z M50.22,37.44c0.532-0.426,0.925-1.144,1.144-1.314c0.41-0.337,0.073-0.684-0.273-0.36
	c-0.276,0.272-1.001-0.359-1.034-0.401c-0.235-0.276-0.58-3.896-0.419-3.978c0,0,2.302-0.284,2.605-0.279
	c0.229,0.016,0.259-0.718,0.013-0.73c-0.375,0-2.131,0.242-2.194,0.07c-0.096-0.382-0.334-1.672,0.244-2.781
	c0.271-0.482-0.009-0.95-0.189-0.456c-0.204,0.503-1.646,2.742-2.579,3.11c-0.761,0.312-0.675,0.489-0.185,0.612
	c0.389,0.076,0.792,0.542,0.718,0.535c-0.076,1.857-0.259,4.15,0.318,5.123C48.756,37.205,49.764,37.841,50.22,37.44z M58.13,38.264
	c-0.285,0.562-0.744,1.074-1.582,1.456c0.509,0.444,1.174,1.017,1.611,1.304c0.504-0.56,0.966-1.079,1.546-1.627
	C59.131,39.284,58.466,38.996,58.13,38.264z M54.505,36.214c0.731-0.06,1.909,0.378,3.217,0.271
	c1.555-0.111,2.775-2.521,2.104-4.396c-0.626-1.78-2.61-1.468-3.947-1.893c-1.228-0.335-1.736-1.107-0.396-1.987
	c1.575-1.018,3.53,0.613,3.718,0.957c0.289,0.519,0.53,0.51,0.53-0.165c0.042-1.474-0.094-0.64-0.241-2.027
	c-0.049-0.496-0.41-0.539-0.444-0.062c-0.032,0.485-0.622,0.336-1.066,0.336c-0.451-0.009-1.766-0.21-2.901,0.42
	c-0.723,0.42-2.374,1.715-1.449,3.266c0.54,0.906,3.712,1.643,4.501,2.164c0.793,0.518,0.972,1.85,0.213,2.461
	c-0.943,0.749-3.509,0.119-3.905-0.336c-0.52-0.575-0.718-1.049-0.828-1.715c-0.109-0.682-0.683-0.624-0.683,0
	c0,0.622,0.146,2.754,0.26,3.254c0.103,0.521,0.623,0.349,0.671-0.046C53.919,36.349,54.164,36.243,54.505,36.214z M51.18,42.862
	c-0.604,0.453,0.711,1.085,0.594,1.05c0.047,1.862-0.223,3.776,0.411,4.722c0.401,0.588,1.651,1.019,1.868,0.457
	c0.21-0.567,1.157-1.724,1.37-1.92c0.394-0.348,0.046-0.667-0.285-0.324c-0.687,0.726-1.069,0.391-1.573-0.09
	c-0.244-0.276-0.336-2.881-0.16-2.958c0,0,1.257-0.183,1.559-0.183c0.234,0,0.215-0.724-0.031-0.724
	c-0.377,0-1.499,0.01-1.563-0.167c-0.14-0.36,0.224-2.116,0.287-2.904c0.051-0.556-0.248-0.732-0.397-0.213
	C53.098,40.116,51.892,42.345,51.18,42.862z"/>
</svg>
